<svg width="234" height="32" viewBox="0 0 234 32" fill="none" xmlns="http://www.w3.org/2000/svg">
<path d="M31.2161 7.39744C28.6057 7.39744 27.4667 8.7738 25.4259 8.7738C24.097 8.7738 23.2901 8.10935 22.2934 7.39744C20.9171 6.40076 18.2593 3.3158 13.3233 3.3158C6.53641 3.3158 0.556335 9.01111 0.603796 16.8896C0.556335 24.7681 6.53641 30.416 13.3233 30.416C18.2593 30.416 20.9171 27.331 22.2934 26.3343C23.2901 25.6224 24.097 24.958 25.4259 24.958C27.4667 24.958 28.6057 26.3343 31.2161 26.3343C35.7249 26.3343 39.0946 22.0154 39.0946 16.7947C39.0946 11.6689 35.7249 7.39744 31.2161 7.39744ZM31.4059 21.6357C30.5516 21.6357 29.9821 21.3035 29.2227 20.9238C28.1311 20.3543 26.7073 19.7373 25.236 19.7373C22.8155 19.7373 21.1069 20.8763 19.778 21.6832C18.5915 22.4426 17.4524 23.1545 15.4116 23.1545C12.2317 23.1545 9.47899 20.4492 9.47899 16.8422C9.47899 13.2826 12.2792 10.5299 15.4116 10.5299C17.405 10.5299 18.5915 11.2892 19.778 12.0011C21.1069 12.8554 22.8155 13.947 25.236 13.947C26.7073 13.947 28.1311 13.3301 29.2227 12.7605C29.9821 12.3808 30.5516 12.0486 31.4059 12.0486C33.4942 12.0486 35.013 14.2318 35.013 16.8422C35.013 19.4525 33.4942 21.6357 31.4059 21.6357Z" fill="url(#paint0_linear)"/>
<path d="M78.1549 25.5749C73.7885 25.5749 70.2764 22.0154 70.2764 17.6964V10.5298C70.2764 9.29585 71.273 8.25171 72.5545 8.25171C73.7885 8.25171 74.8326 9.24839 74.8326 10.5298V17.6964C74.8326 19.5474 76.3514 21.0661 78.2023 21.0661C80.0533 21.0661 81.5721 19.5474 81.5721 17.6964V10.5298C81.5721 9.29585 82.5688 8.25171 83.8502 8.25171C85.0842 8.25171 86.1283 9.24839 86.1283 10.5298V17.6964C86.0334 22.0154 82.5213 25.5749 78.1549 25.5749Z" fill="#197CD8"/>
<path d="M105.587 8.25171C103.689 8.25171 101.838 9.05854 100.794 10.2451C99.7497 9.05854 97.8987 8.25171 96.0003 8.25171C92.1085 8.25171 88.9761 11.4316 88.9761 15.2759V23.2968C88.9761 24.5308 89.9728 25.5749 91.2542 25.5749C92.4882 25.5749 93.5323 24.5783 93.5323 23.2968V15.2759C93.5323 13.8996 94.6714 12.7605 96.0478 12.7605C97.4241 12.7605 98.5632 13.8996 98.5632 15.2759V23.2968C98.5632 24.5308 99.5599 25.5749 100.841 25.5749C102.075 25.5749 103.119 24.5783 103.119 23.2968V15.2759C103.119 13.8996 104.258 12.7605 105.635 12.7605C107.011 12.7605 108.15 13.8996 108.15 15.2759V23.2968C108.15 24.5308 109.147 25.5749 110.428 25.5749C111.662 25.5749 112.707 24.5783 112.707 23.2968V15.2759C112.612 11.3841 109.479 8.25171 105.587 8.25171Z" fill="#197CD8"/>
<path d="M50.6751 8.25171C45.8815 8.25171 41.9897 12.1435 41.9897 16.9371V29.2769C41.9897 30.5109 42.9864 31.555 44.2679 31.555C45.5019 31.555 46.546 30.5584 46.546 29.2769V24.3884C47.5901 25.1478 49.2038 25.5749 50.6751 25.5749C55.4686 25.5749 59.3604 21.6832 59.3604 16.8896C59.3604 12.1435 55.4686 8.25171 50.6751 8.25171ZM50.6751 21.0662C48.397 21.0662 46.546 19.2152 46.546 16.9371C46.546 14.6589 48.397 12.808 50.6751 12.808C52.9532 12.808 54.8042 14.6589 54.8042 16.9371C54.8517 19.1677 52.9532 21.0662 50.6751 21.0662Z" fill="#197CD8"/>
<path d="M64.3914 25.575C63.1574 25.575 62.1133 24.5783 62.1133 23.2969V10.4824C62.1133 9.24843 63.11 8.20428 64.3914 8.20428C65.6254 8.20428 66.6695 9.20097 66.6695 10.4824V23.2969C66.6695 24.5783 65.6729 25.575 64.3914 25.575Z" fill="#197CD8"/>
<path d="M118.307 25.5749C119.565 25.5749 120.585 24.555 120.585 23.2968C120.585 22.0387 119.565 21.0187 118.307 21.0187C117.049 21.0187 116.029 22.0387 116.029 23.2968C116.029 24.555 117.049 25.5749 118.307 25.5749Z" fill="#197CD8"/>
<path d="M168.758 8.7738C164.107 8.7738 160.357 12.5232 160.357 17.1744C160.357 21.8256 164.107 25.575 168.758 25.575C171.036 25.575 173.029 24.6258 174.595 23.0121V24.2935C174.595 25.0055 175.165 25.575 175.877 25.575C176.589 25.575 177.158 25.0055 177.158 24.2935V17.1744C177.158 12.5232 173.409 8.7738 168.758 8.7738ZM168.758 23.0121C165.53 23.0121 162.92 20.4017 162.92 17.1744C162.92 13.9471 165.53 11.3367 168.758 11.3367C171.985 11.3367 174.595 13.9471 174.595 17.1744C174.643 20.4017 171.985 23.0121 168.758 23.0121Z" fill="#197CD8"/>
<path d="M214.51 20.4967C214.273 20.3068 213.988 20.2119 213.751 20.2119C213.418 20.2119 213.039 20.4018 212.801 20.734C211.567 22.1578 209.954 23.0121 208.103 23.0121C204.875 23.0121 202.265 20.4018 202.265 17.1744C202.265 13.9471 204.875 11.3367 208.103 11.3367C209.954 11.3367 211.567 12.191 212.801 13.6148C213.086 13.9471 213.466 14.1369 213.751 14.1369C214.035 14.1369 214.273 14.042 214.51 13.8522C214.842 13.6148 214.985 13.2352 214.985 12.8555C214.985 12.6182 214.89 12.3334 214.7 12.0961C213.086 10.0078 210.666 8.82129 208.055 8.82129C203.404 8.82129 199.655 12.5707 199.655 17.2219C199.655 21.873 203.404 25.6225 208.055 25.6225C210.666 25.6225 213.134 24.4359 214.7 22.3477C214.89 22.1104 214.985 21.8256 214.985 21.5883C215.032 21.1137 214.842 20.734 214.51 20.4967Z" fill="#197CD8"/>
<path d="M155.801 25.575C155.089 25.575 154.519 25.0055 154.519 24.2935V16.3201C154.519 13.5674 152.289 11.3367 149.536 11.3367C146.783 11.3367 144.553 13.5674 144.553 16.3201V24.2935C144.553 25.0055 143.983 25.575 143.271 25.575C142.559 25.575 141.99 25.0055 141.99 24.2935V16.3201C141.99 12.1435 145.359 8.7738 149.536 8.7738C153.713 8.7738 157.082 12.1435 157.082 16.3201V24.2935C157.082 25.0055 156.465 25.575 155.801 25.575Z" fill="#197CD8"/>
<path d="M195.431 25.575C194.719 25.575 194.149 25.0055 194.149 24.2935V16.3201C194.149 13.5674 191.919 11.3367 189.166 11.3367C186.413 11.3367 184.183 13.5674 184.183 16.3201V24.2935C184.183 25.0055 183.613 25.575 182.901 25.575C182.189 25.575 181.62 25.0055 181.62 24.2935V16.3201C181.62 12.1435 184.989 8.7738 189.166 8.7738C193.342 8.7738 196.712 12.1435 196.712 16.3201V24.2935C196.712 25.0055 196.143 25.575 195.431 25.575Z" fill="#197CD8"/>
<path d="M233.827 17.1744C233.827 12.5232 230.077 8.7738 225.426 8.7738C220.775 8.7738 217.026 12.5232 217.026 17.1744C217.026 21.8256 220.775 25.575 225.426 25.575C226.708 25.575 227.942 25.2902 229.081 24.7681C229.698 24.4834 229.982 23.724 229.698 23.0595C229.413 22.4426 228.654 22.1578 227.989 22.4426C227.182 22.8223 226.328 23.0121 225.474 23.0121C222.768 23.0121 220.49 21.1611 219.826 18.6457H232.593C233.305 18.6457 233.874 18.0762 233.874 17.3642L233.827 17.1744ZM225.426 11.3367C228.369 11.3367 230.789 13.5199 231.216 16.3201H219.636C220.063 13.4724 222.484 11.3367 225.426 11.3367Z" fill="#197CD8"/>
<path d="M136.247 25.575C135.535 25.575 134.966 25.0055 134.966 24.2935V10.0553C134.966 9.34334 135.535 8.7738 136.247 8.7738C136.959 8.7738 137.528 9.34334 137.528 10.0553V24.2935C137.528 25.0055 136.959 25.575 136.247 25.575Z" fill="#197CD8"/>
<path d="M131.548 8.96367H126.565C126.613 5.78378 129.223 3.17343 132.403 3.17343C133.115 3.17343 133.684 2.60389 133.684 1.89198C133.684 1.18006 133.115 0.610535 132.403 0.610535C127.752 0.610535 124.002 4.35995 124.002 9.01112V24.2936C124.002 25.0055 124.572 25.575 125.284 25.575C125.996 25.575 126.565 25.0055 126.565 24.2936V11.3367H131.548C132.213 11.3367 132.735 10.8146 132.735 10.1502C132.782 9.48574 132.213 8.96367 131.548 8.96367Z" fill="#197CD8"/>
<defs>
<linearGradient id="paint0_linear" x1="0.618604" y1="16.883" x2="39.0862" y2="16.883" gradientUnits="userSpaceOnUse">
<stop stop-color="#31EDA9"/>
<stop offset="0.0618344" stop-color="#71EF74"/>
<stop offset="0.1263" stop-color="#AEF043"/>
<stop offset="0.1813" stop-color="#DAF11E"/>
<stop offset="0.2239" stop-color="#F5F208"/>
<stop offset="0.2488" stop-color="#FFF200"/>
<stop offset="0.27" stop-color="#FEDC0E"/>
<stop offset="0.3843" stop-color="#FA685A"/>
<stop offset="0.4629" stop-color="#F71F89"/>
<stop offset="0.4991" stop-color="#F6029C"/>
<stop offset="0.505" stop-color="#F0059E"/>
<stop offset="0.5554" stop-color="#BE21AB"/>
<stop offset="0.6084" stop-color="#9239B7"/>
<stop offset="0.663" stop-color="#6C4EC1"/>
<stop offset="0.7196" stop-color="#4E5FCA"/>
<stop offset="0.7788" stop-color="#376CD0"/>
<stop offset="0.8419" stop-color="#2675D4"/>
<stop offset="0.9114" stop-color="#1C7AD7"/>
<stop offset="1" stop-color="#197CD8"/>
</linearGradient>
</defs>
</svg>
